{
  "accessors": [
    {
      "bufferView": 2,
      "componentType": 5126,
      "count": 844,
      "max": [
        0.9991879463195801,
        1.0,
        1.0
      ],
      "min": [
        -0.9991879463195801,
        -0.9967555403709412,
        -1.0
      ],
      "type": "VEC3"
    },
    {
      "bufferView": 2,
      "byteOffset": 10128,
      "componentType": 5126,
      "count": 844,
      "max": [
        0.9991890788078308,
        1.0,
        1.0
      ],
      "min": [
        -0.999189019203186,
        -0.9967573881149292,
        -1.0
      ],
      "type": "VEC3"
    },
    {
      "bufferView": 1,
      "componentType": 5126,
      "count": 844,
      "max": [
        1.0000452995300293,
        1.0
      ],
      "min": [
        0.0006087212241254747,
        0.0035255986731499434
      ],
      "type": "VEC2"
    },
    {
      "bufferView": 0,
      "componentType": 5125,
      "count": 4914,
      "type": "SCALAR"
    },
    {
      "bufferView": 2,
      "byteOffset": 20256,
      "componentType": 5126,
      "count": 844,
      "max": [
        0.9991879463195801,
        1.0,
        1.0
      ],
      "min": [
        -0.9991879463195801,
        -0.9967555403709412,
        -1.0
      ],
      "type": "VEC3"
    },
    {
      "bufferView": 2,
      "byteOffset": 30384,
      "componentType": 5126,
      "count": 844,
      "max": [
        0.9991890788078308,
        1.0,
        1.0
      ],
      "min": [
        -0.9991890788078308,
        -0.9967573881149292,
        -1.0
      ],
      "type": "VEC3"
    },
    {
      "bufferView": 1,
      "byteOffset": 6752,
      "componentType": 5126,
      "count": 844,
      "max": [
        1.00115168094635,
        1.0
      ],
      "min": [
        6.15766184637323e-05,
        0.0
      ],
      "type": "VEC2"
    },
    {
      "bufferView": 0,
      "byteOffset": 19656,
      "componentType": 5125,
      "count": 4914,
      "type": "SCALAR"
    },
    {
      "bufferView": 2,
      "byteOffset": 40512,
      "componentType": 5126,
      "count": 844,
      "max": [
        0.9991879463195801,
        1.0,
        1.0
      ],
      "min": [
        -0.9991879463195801,
        -0.9967555403709412,
        -1.0
      ],
      "type": "VEC3"
    },
    {
      "bufferView": 2,
      "byteOffset": 50640,
      "componentType": 5126,
      "count": 844,
      "max": [
        0.9991890788078308,
        0.996757447719574,
        1.0
      ],
      "min": [
        -0.9991890788078308,
        -1.0,
        -1.0
      ],
      "type": "VEC3"
    },
    {
      "bufferView": 1,
      "byteOffset": 13504,
      "componentType": 5126,
      "count": 844,
      "max": [
        1.00115168094635,
        1.0
      ],
      "min": [
        6.15766184637323e-05,
        0.0
      ],
      "type": "VEC2"
    },
    {
      "bufferView": 0,
      "byteOffset": 39312,
      "componentType": 5125,
      "count": 4914,
      "type": "SCALAR"
    },
    {
      "bufferView": 2,
      "byteOffset": 60768,
      "componentType": 5126,
      "count": 574,
      "max": [
        0.250043660402298,
        0.2504507303237915,
        0.2500201463699341
      ],
      "min": [
        -0.2500437796115875,
        -0.2504504323005676,
        -0.2500201463699341
      ],
      "type": "VEC3"
    },
    {
      "bufferView": 2,
      "byteOffset": 67656,
      "componentType": 5126,
      "count": 574,
      "max": [
        0.9980036020278931,
        0.9996274709701538,
        0.9979089498519897
      ],
      "min": [
        -0.9980036020278931,
        -0.9996274709701538,
        -0.9979089498519897
      ],
      "type": "VEC3"
    },
    {
      "bufferView": 1,
      "byteOffset": 20256,
      "componentType": 5126,
      "count": 574,
      "max": [
        0.9725607633590698,
        0.9429914951324463
      ],
      "min": [
        0.03187151253223419,
        0.052079588174819946
      ],
      "type": "VEC2"
    },
    {
      "bufferView": 0,
      "byteOffset": 58968,
      "componentType": 5125,
      "count": 3240,
      "type": "SCALAR"
    }
  ],
  "asset": {
    "extras": {
      "author": "Mateusz Woliński (https://sketchfab.com/jeandiz)",
      "license": "CC-BY-4.0 (http://creativecommons.org/licenses/by/4.0/)",
      "source": "https://sketchfab.com/3d-models/earth-4a8f49828b254d9c88198ca813e9d8de",
      "title": "Earth"
    },
    "generator": "Sketchfab-12.66.0",
    "version": "2.0"
  },
  "bufferViews": [
    {
      "buffer": 0,
      "byteLength": 71928,
      "name": "floatBufferViews",
      "target": 34963
    },
    {
      "buffer": 0,
      "byteLength": 24848,
      "byteOffset": 71928,
      "byteStride": 8,
      "name": "floatBufferViews",
      "target": 34962
    },
    {
      "buffer": 0,
      "byteLength": 74544,
      "byteOffset": 96776,
      "byteStride": 12,
      "name": "floatBufferViews",
      "target": 34962
    }
  ],
  "buffers": [
    {
      "byteLength": 171320,
      "uri": "scene.bin"
    }
  ],
  "images": [
    {
      "uri": "textures/planet_baseColor.png"
    },
    {
      "uri": "textures/planet_emissive.png"
    },
    {
      "uri": "textures/clouds_baseColor.png"
    },
    {
      "uri": "textures/moon_baseColor.jpeg"
    }
  ],
  "materials": [
    {
      "doubleSided": true,
      "emissiveFactor": [
        0.5830621387,
        0.5830621387,
        0.5830621387
      ],
      "emissiveTexture": {
        "index": 1
      },
      "name": "planet",
      "pbrMetallicRoughness": {
        "baseColorTexture": {
          "index": 0
        },
        "metallicFactor": 0.5230807040334987
      }
    },
    {
      "alphaMode": "BLEND",
      "doubleSided": true,
      "name": "clouds",
      "pbrMetallicRoughness": {
        "baseColorTexture": {
          "index": 2
        },
        "metallicFactor": 0.0,
        "roughnessFactor": 0.9438900397200145
      }
    },
    {
      "alphaMode": "BLEND",
      "emissiveFactor": [
        0.0,
        0.035841096326478236,
        0.21473762835481525
      ],
      "name": "atmosphere",
      "pbrMetallicRoughness": {
        "baseColorFactor": [
          0.0,
          0.0031004607472577116,
          0.14107431122548625,
          0.1022713683469828
        ],
        "metallicFactor": 0.0
      }
    },
    {
      "doubleSided": true,
      "name": "moon",
      "pbrMetallicRoughness": {
        "baseColorTexture": {
          "index": 3
        },
        "metallicFactor": 0.0
      }
    }
  ],
  "meshes": [
    {
      "name": "planet_planet_0",
      "primitives": [
        {
          "attributes": {
            "NORMAL": 1,
            "POSITION": 0,
            "TEXCOORD_0": 2
          },
          "indices": 3,
          "material": 0,
          "mode": 4
        }
      ]
    },
    {
      "name": "clouds_clouds_0",
      "primitives": [
        {
          "attributes": {
            "NORMAL": 5,
            "POSITION": 4,
            "TEXCOORD_0": 6
          },
          "indices": 7,
          "material": 1,
          "mode": 4
        }
      ]
    },
    {
      "name": "atmosphere_atmosphere_0",
      "primitives": [
        {
          "attributes": {
            "NORMAL": 9,
            "POSITION": 8,
            "TEXCOORD_0": 10
          },
          "indices": 11,
          "material": 2,
          "mode": 4
        }
      ]
    },
    {
      "name": "moon_moon_0",
      "primitives": [
        {
          "attributes": {
            "NORMAL": 13,
            "POSITION": 12,
            "TEXCOORD_0": 14
          },
          "indices": 15,
          "material": 3,
          "mode": 4
        }
      ]
    }
  ],
  "nodes": [
    {
      "children": [
        1
      ],
      "matrix": [
        1.0,
        0.0,
        0.0,
        0.0,
        0.0,
        2.220446049250313e-16,
        -1.0,
        0.0,
        0.0,
        1.0,
        2.220446049250313e-16,
        0.0,
        0.0,
        0.0,
        0.0,
        1.0
      ],
      "name": "Sketchfab_model"
    },
    {
      "children": [
        2
      ],
      "matrix": [
        0.009999999776482582,
        0.0,
        0.0,
        0.0,
        0.0,
        0.0,
        0.009999999776482582,
        0.0,
        0.0,
        -0.009999999776482582,
        0.0,
        0.0,
        0.0,
        0.0,
        0.0,
        1.0
      ],
      "name": "5a088465bc7f49f18c11797b64aed8d3.fbx"
    },
    {
      "children": [
        3,
        9
      ],
      "name": "RootNode"
    },
    {
      "children": [
        4,
        5,
        7
      ],
      "matrix": [
        100.0,
        0.0,
        0.0,
        0.0,
        0.0,
        -1.629206793918314e-05,
        -99.99999999999868,
        0.0,
        0.0,
        99.99999999999868,
        -1.629206793918314e-05,
        0.0,
        0.0,
        0.0,
        0.0,
        1.0
      ],
      "name": "planet"
    },
    {
      "mesh": 0,
      "name": "planet_planet_0"
    },
    {
      "children": [
        6
      ],
      "matrix": [
        1.004059076309204,
        0.0,
        0.0,
        0.0,
        0.0,
        1.0040590763091908,
        -1.6358192109278877e-07,
        0.0,
        0.0,
        1.6358192109278877e-07,
        1.0040590763091908,
        0.0,
        0.0,
        0.0,
        0.0,
        1.0
      ],
      "name": "clouds"
    },
    {
      "mesh": 1,
      "name": "clouds_clouds_0"
    },
    {
      "children": [
        8
      ],
      "matrix": [
        1.0164796113967896,
        0.0,
        0.0,
        0.0,
        0.0,
        1.016479611396776,
        -1.6560554007426028e-07,
        0.0,
        0.0,
        1.6560554007426028e-07,
        1.016479611396776,
        0.0,
        0.0,
        0.0,
        0.0,
        1.0
      ],
      "name": "atmosphere"
    },
    {
      "mesh": 2,
      "name": "atmosphere_atmosphere_0"
    },
    {
      "children": [
        10
      ],
      "matrix": [
        100.0,
        0.0,
        0.0,
        0.0,
        0.0,
        -1.629206793918314e-05,
        -99.99999999999868,
        0.0,
        0.0,
        99.99999999999868,
        -1.629206793918314e-05,
        0.0,
        21.80193328857422,
        104.26323699951172,
        -441.16729736328125,
        1.0
      ],
      "name": "moon"
    },
    {
      "mesh": 3,
      "name": "moon_moon_0"
    }
  ],
  "samplers": [
    {
      "magFilter": 9729,
      "minFilter": 9987,
      "wrapS": 10497,
      "wrapT": 10497
    }
  ],
  "scene": 0,
  "scenes": [
    {
      "name": "Sketchfab_Scene",
      "nodes": [
        0
      ]
    }
  ],
  "textures": [
    {
      "sampler": 0,
      "source": 0
    },
    {
      "sampler": 0,
      "source": 1
    },
    {
      "sampler": 0,
      "source": 2
    },
    {
      "sampler": 0,
      "source": 3
    }
  ]
}
