<svg xmlns="http://www.w3.org/2000/svg" height="800" width="1200" xml:space="preserve" y="0" x="0" id="Layer_1" version="1.1" viewBox="-5.6715 -2.4125 49.153 14.475"><style id="style11120" type="text/css">.st0{fill:#356388}.st1{fill:#39b54a}.st2{fill:#3c9cd7}</style><g transform="translate(-9.37 -6.47)" id="g11144"><path id="rect11122" class="st0" d="M32.09 6.47h1.97v1.77h-1.97z"/><path id="rect11124" class="st1" d="M40.93 6.47h1.93v1.88h-1.93z"/><path id="rect11126" class="st1" d="M35.05 14.09h1.93v1.88h-1.93z"/><path id="rect11128" class="st1" d="M32.09 8.8h1.97v1.88h-1.97z"/><path id="path11130" d="M32.09 11.24v2.22c0 .52-.28.84-.75.84-.44 0-.76-.28-.76-.85V6.47h-.28c-1.18 0-1.81.76-1.81 2.24v4.8c0 1.8 1.03 2.61 2.73 2.61 1.6 0 2.85-.92 2.84-2.65v-2.22h-1.97z" class="st0"/><path id="path11132" d="M25.25 6.47H24c-1.18 0-1.81.76-1.81 2.24v7.27h2.08V12.6h.92c1.72 0 2.45-1.2 2.45-3.19 0-1.94-.83-2.94-2.39-2.94zm-.38 4.44h-.6V8.18h.61c.49 0 .73.37.73 1.29 0 .98-.26 1.44-.74 1.44z" class="st2"/><path id="path11134" d="M12.43 6.47h-1.25c-1.18 0-1.81.76-1.81 2.24v7.27h2.08V12.6h.92c1.72 0 2.45-1.2 2.45-3.19 0-1.94-.83-2.94-2.39-2.94zm-.39 4.44h-.6V8.18h.61c.49 0 .73.37.73 1.29.01.98-.26 1.44-.74 1.44z" class="st2"/><path id="path11136" d="M20.89 6.47c-1.18 0-1.81.76-1.81 2.24v1.55H17.6V6.47h-.27c-1.18 0-1.81.76-1.81 2.24v7.27h2.08v-3.84h1.48v3.84h2.07v-9.5h-.26z" class="st2"/><path id="path11138" d="M47.18 10.36V8.87h-.97V7.26h-.61c-.85 0-1.31.55-1.31 1.61h-.63v1.49h.63v4.2c0 1.05.75 1.52 1.69 1.52.37 0 .84-.07 1.19-.19v-1.53c-.15.03-.36.04-.56.04-.31 0-.4-.15-.4-.41v-3.63z" class="st0"/><path id="path11140" d="M38.46 8.64c-.63 0-1.13.27-1.48.77V8.8h-.63c-.85 0-1.31.55-1.31 1.61v3.12h1.93V11c0-.43.21-.75.53-.75.43 0 .52.33.52.63v5.09h1.92v-5.81c.02-.94-.65-1.52-1.48-1.52z" class="st0"/><path id="path11142" d="M42.24 8.87c-.85 0-1.31.55-1.31 1.61v5.49h1.93v-7.1z" class="st0"/></g></svg>