{
  "accessors": [
    {
      "bufferView": 2,
      "componentType": 5126,
      "count": 4239,
      "max": [
        29.83955955505371,
        25.117462158203125,
        30.88532257080078
      ],
      "min": [
        -29.83956527709961,
        -25.117475509643555,
        -30.885324478149414
      ],
      "type": "VEC3"
    },
    {
      "bufferView": 2,
      "byteOffset": 50868,
      "componentType": 5126,
      "count": 4239,
      "max": [
        0.9999901056289673,
        0.998799741268158,
        0.9994298815727234
      ],
      "min": [
        -0.9999904632568359,
        -0.9937798976898193,
        -0.9998970031738281
      ],
      "type": "VEC3"
    },
    {
      "bufferView": 1,
      "componentType": 5126,
      "count": 4239,
      "max": [
        1.0,
        1.0
      ],
      "min": [
        0.0,
        0.0
      ],
      "type": "VEC2"
    },
    {
      "bufferView": 0,
      "componentType": 5125,
      "count": 7410,
      "type": "SCALAR"
    },
    {
      "bufferView": 2,
      "byteOffset": 101736,
      "componentType": 5126,
      "count": 302,
      "max": [
        28.056848526000977,
        22.168365478515625,
        27.832500457763672
      ],
      "min": [
        -28.05532455444336,
        -24.196136474609375,
        -4.10859489440918
      ],
      "type": "VEC3"
    },
    {
      "bufferView": 2,
      "byteOffset": 105360,
      "componentType": 5126,
      "count": 302,
      "max": [
        1.0,
        0.9640125036239624,
        0.9751719832420349
      ],
      "min": [
        -0.9798474907875061,
        -0.9657138586044312,
        -0.9995566606521606
      ],
      "type": "VEC3"
    },
    {
      "bufferView": 1,
      "byteOffset": 33912,
      "componentType": 5126,
      "count": 302,
      "max": [
        1.8677890300750732,
        1.0
      ],
      "min": [
        -0.6240659952163696,
        -0.11757099628448486
      ],
      "type": "VEC2"
    },
    {
      "bufferView": 0,
      "byteOffset": 29640,
      "componentType": 5125,
      "count": 390,
      "type": "SCALAR"
    },
    {
      "bufferView": 2,
      "byteOffset": 108984,
      "componentType": 5126,
      "count": 11,
      "max": [
        25.63175392150879,
        9.230586051940918,
        3.2545840740203857
      ],
      "min": [
        6.211525917053223,
        -24.196134567260742,
        -3.857595920562744
      ],
      "type": "VEC3"
    },
    {
      "bufferView": 2,
      "byteOffset": 109116,
      "componentType": 5126,
      "count": 11,
      "max": [
        -0.021615007892251015,
        -0.20836299657821655,
        0.9751719832420349
      ],
      "min": [
        -0.14201098680496216,
        -0.2681330740451813,
        0.9593242406845093
      ],
      "type": "VEC3"
    },
    {
      "bufferView": 1,
      "byteOffset": 36328,
      "componentType": 5126,
      "count": 11,
      "max": [
        1.0,
        1.0
      ],
      "min": [
        0.0,
        0.0
      ],
      "type": "VEC2"
    },
    {
      "bufferView": 0,
      "byteOffset": 31200,
      "componentType": 5125,
      "count": 36,
      "type": "SCALAR"
    }
  ],
  "asset": {
    "extras": {
      "author": "Inditrion Dradnon (https://sketchfab.com/dradnon)",
      "license": "CC-BY-4.0 (http://creativecommons.org/licenses/by/4.0/)",
      "source": "https://sketchfab.com/3d-models/computer-desk-28c67457f2ef4973a0bbc8b667bb183f",
      "title": "Computer Desk"
    },
    "generator": "Sketchfab-12.65.0",
    "version": "2.0"
  },
  "bufferViews": [
    {
      "buffer": 0,
      "byteLength": 31344,
      "name": "floatBufferViews",
      "target": 34963
    },
    {
      "buffer": 0,
      "byteLength": 36416,
      "byteOffset": 31344,
      "byteStride": 8,
      "name": "floatBufferViews",
      "target": 34962
    },
    {
      "buffer": 0,
      "byteLength": 109248,
      "byteOffset": 67760,
      "byteStride": 12,
      "name": "floatBufferViews",
      "target": 34962
    }
  ],
  "buffers": [
    {
      "byteLength": 177008,
      "uri": "scene.bin"
    }
  ],
  "images": [
    {
      "uri": "textures/MaterialFBXASC032FBXASC0352142146907_baseColor.jpeg"
    },
    {
      "uri": "textures/MaterialFBXASC032FBXASC0352142146907_metallicRoughness.png"
    },
    {
      "uri": "textures/MaterialFBXASC032FBXASC03511186_emissive.jpeg"
    },
    {
      "uri": "textures/MaterialFBXASC032FBXASC0352142146802_emissive.jpeg"
    }
  ],
  "materials": [
    {
      "doubleSided": true,
      "name": "MaterialFBXASC032FBXASC0352142146907",
      "pbrMetallicRoughness": {
        "baseColorTexture": {
          "index": 0
        },
        "metallicRoughnessTexture": {
          "index": 1
        }
      }
    },
    {
      "doubleSided": true,
      "emissiveFactor": [
        1.0,
        1.0,
        1.0
      ],
      "emissiveTexture": {
        "index": 2
      },
      "name": "MaterialFBXASC032FBXASC03511186",
      "pbrMetallicRoughness": {
        "baseColorFactor": [
          0.0,
          0.0,
          0.0,
          1.0
        ],
        "metallicFactor": 0.0
      }
    },
    {
      "doubleSided": true,
      "emissiveFactor": [
        1.0,
        1.0,
        1.0
      ],
      "emissiveTexture": {
        "index": 3
      },
      "name": "MaterialFBXASC032FBXASC0352142146802",
      "pbrMetallicRoughness": {
        "baseColorFactor": [
          0.0,
          0.0,
          0.0,
          1.0
        ],
        "metallicFactor": 0.0
      }
    }
  ],
  "meshes": [
    {
      "name": "MaterialFBXASC032FBXASC0352142146907",
      "primitives": [
        {
          "attributes": {
            "NORMAL": 1,
            "POSITION": 0,
            "TEXCOORD_0": 2
          },
          "indices": 3,
          "material": 0,
          "mode": 4
        }
      ]
    },
    {
      "name": "MaterialFBXASC032FBXASC03511186",
      "primitives": [
        {
          "attributes": {
            "NORMAL": 5,
            "POSITION": 4,
            "TEXCOORD_0": 6
          },
          "indices": 7,
          "material": 1,
          "mode": 4
        }
      ]
    },
    {
      "name": "MaterialFBXASC032FBXASC0352142146802",
      "primitives": [
        {
          "attributes": {
            "NORMAL": 9,
            "POSITION": 8,
            "TEXCOORD_0": 10
          },
          "indices": 11,
          "material": 2,
          "mode": 4
        }
      ]
    }
  ],
  "nodes": [
    {
      "children": [
        1
      ],
      "matrix": [
        1.0,
        0.0,
        0.0,
        0.0,
        0.0,
        2.220446049250313e-16,
        -1.0,
        0.0,
        0.0,
        1.0,
        2.220446049250313e-16,
        0.0,
        0.0,
        0.0,
        0.0,
        1.0
      ],
      "name": "Sketchfab_model"
    },
    {
      "children": [
        2
      ],
      "matrix": [
        1.0,
        0.0,
        0.0,
        0.0,
        0.0,
        -4.371139006309477e-08,
        0.999999999999999,
        0.0,
        0.0,
        -0.999999999999999,
        -4.371139006309477e-08,
        0.0,
        0.0,
        0.0,
        0.0,
        1.0
      ],
      "name": "Collada visual scene group"
    },
    {
      "children": [
        3,
        4,
        5
      ],
      "matrix": [
        -0.230499,
        -0.003699,
        0.083111,
        0.0,
        -0.033461,
        -0.012314,
        -0.093347,
        0.0,
        -0.007763,
        0.137813,
        -0.015397,
        0.0,
        -39.768951,
        2.090152,
        -28.413641,
        1.0
      ],
      "name": "RevelionFBXASC032ComputerkonsoleFBXASC032alt"
    },
    {
      "mesh": 0,
      "name": "MaterialFBXASC032FBXASC0352142146907"
    },
    {
      "mesh": 1,
      "name": "MaterialFBXASC032FBXASC03511186"
    },
    {
      "mesh": 2,
      "name": "MaterialFBXASC032FBXASC0352142146802"
    }
  ],
  "samplers": [
    {
      "magFilter": 9729,
      "minFilter": 9987,
      "wrapS": 10497,
      "wrapT": 10497
    }
  ],
  "scene": 0,
  "scenes": [
    {
      "name": "Sketchfab_Scene",
      "nodes": [
        0
      ]
    }
  ],
  "textures": [
    {
      "sampler": 0,
      "source": 0
    },
    {
      "sampler": 0,
      "source": 1
    },
    {
      "sampler": 0,
      "source": 2
    },
    {
      "sampler": 0,
      "source": 3
    }
  ]
}
